<?xml version="1.0" encoding="UTF-8"?>
<svg width="512" height="512" viewBox="0 0 512 512" fill="none" xmlns="http://www.w3.org/2000/svg">
    <!-- Gradient Definition -->
    <defs>
        <linearGradient id="brandGradient" x1="0" y1="0" x2="512" y2="512" gradientUnits="userSpaceOnUse">
            <stop offset="0%" style="stop-color:#166534"/>
            <stop offset="50%" style="stop-color:#15803d"/>
            <stop offset="100%" style="stop-color:#facc15"/>
        </linearGradient>
        <filter id="shadow" x="-20%" y="-20%" width="140%" height="140%">
            <feDropShadow dx="0" dy="4" stdDeviation="8" flood-opacity="0.2"/>
        </filter>
    </defs>

    <!-- Background Circle with Gradient -->
    <circle cx="256" cy="256" r="240" fill="url(#brandGradient)" filter="url(#shadow)"/>

    <!-- App Icon Border Ring -->
    <circle cx="256" cy="256" r="220" stroke="white" stroke-width="4" stroke-opacity="0.2" fill="none"/>
    
    <!-- Decorative Elements -->
    <path d="M256 96C176.5 96 112 160.5 112 240C112 319.5 176.5 384 256 384C335.5 384 400 319.5 400 240C400 160.5 335.5 96 256 96ZM256 352C194.1 352 144 301.9 144 240C144 178.1 194.1 128 256 128C317.9 128 368 178.1 368 240C368 301.9 317.9 352 256 352Z" fill="white" fill-opacity="0.9"/>
    
    <!-- Center Circle -->
    <circle cx="256" cy="256" r="160" fill="white" fill-opacity="0.1"/>
    
    <!-- Text Background -->
    <rect x="76" y="210" width="360" height="92" rx="46" fill="white"/>
    
    <!-- App Name Text (will be replaced dynamically) -->
    <text x="256" y="270" font-family="Arial Black, Arial, sans-serif" font-size="48" font-weight="900" fill="#166534" text-anchor="middle" dominant-baseline="middle" letter-spacing="1">GOGO RUMMY</text>
</svg>